# xmcd CD database file
#
# Track frame offsets:
#	150
#	20372
#	41742
#
# Disc length: 826 seconds
#
# Revision: 0
# Processed by: cddbd v1.5.1PL0 Copyright (c) Steve Scherf et al.
# Submitted via: CDex 1.50
#
DISCID=1c033803
DTITLE=渡辺美里 - My Love Your Love (たったひとりしかいないあなたへ)
DYEAR=1996
DGENRE=J-Rock
TTITLE0=My Love Your Love (たったひとりしかいないあなたへ)
TTITLE1=愛しき者よ
TTITLE2=My Love Your Love (たったひとりしかいないあなたへ)[Instrumental Version]
EXTD=YEAR: 1996
EXTT0=
EXTT1=
EXTT2=
PLAYORDER=
